<svg width="717" height="586" viewBox="0 0 717 586" fill="none" xmlns="http://www.w3.org/2000/svg">
<g clip-path="url(#clip0_44_169)">
<path d="M450.85 534.087L440.011 534.086L434.854 490.859L450.852 490.86L450.85 534.087Z" fill="#9E616A"/>
<path d="M453.614 544.95L418.666 544.949V544.492C418.666 540.761 420.099 537.184 422.65 534.546C425.201 531.909 428.661 530.427 432.269 530.427H432.269L453.615 530.427L453.614 544.95Z" fill="#2F2E41"/>
<path d="M411.95 534.087L401.111 534.086L395.955 490.859L411.952 490.86L411.95 534.087Z" fill="#9E616A"/>
<path d="M414.714 544.95L379.766 544.949V544.492C379.766 540.761 381.199 537.184 383.75 534.546C386.301 531.909 389.761 530.427 393.369 530.427H393.369L414.715 530.427L414.714 544.95Z" fill="#2F2E41"/>
<path d="M285.715 231.184C286.581 232.415 287.698 233.436 288.987 234.173C290.276 234.91 291.706 235.346 293.175 235.45C294.645 235.554 296.118 235.324 297.492 234.776C298.866 234.227 300.108 233.374 301.128 232.276L322.575 240.935L330.843 228.743L300.39 216.953C298.492 215.303 296.075 214.429 293.596 214.499C291.117 214.568 288.749 215.575 286.94 217.329C285.131 219.083 284.007 221.462 283.781 224.016C283.556 226.569 284.244 229.12 285.715 231.184V231.184Z" fill="#9E616A"/>
<path d="M411.813 305.056L383.576 314.58L393.009 521.353L414.802 521.911L425.955 376.091L428.487 521.335L455.434 522.871L465.367 305.056H411.813Z" fill="#2F2E41"/>
<path d="M392.761 183.167L465.234 166.885L473.293 231.409L466.582 262.239L469.27 309.092C469.27 309.092 411.965 338.583 383.576 314.58C383.576 314.58 406.393 252.611 393.167 223.602L392.761 183.167Z" fill="#E4E4E4"/>
<path d="M405.312 192.293L392.761 183.167C392.761 183.167 392.019 182.105 381.56 194.748C371.101 207.391 349.882 227.502 349.882 227.502L314.519 213.79L308.076 238.403L349.176 258.207L407.363 218.026L405.312 192.293Z" fill="#E4E4E4"/>
<path d="M469.283 333.279C470.615 332.628 471.793 331.684 472.733 330.511C473.674 329.339 474.354 327.968 474.727 326.495C475.1 325.022 475.156 323.481 474.89 321.983C474.625 320.485 474.046 319.065 473.192 317.824L485.416 297.65L475.371 286.979L458.496 315.719C456.574 317.34 455.293 319.633 454.897 322.164C454.501 324.695 455.017 327.289 456.346 329.453C457.676 331.618 459.728 333.203 462.112 333.908C464.496 334.613 467.048 334.389 469.283 333.279Z" fill="#9E616A"/>
<path d="M453.93 179.596L465.233 166.885C465.233 166.885 477.828 162.35 488.119 185.785C498.409 209.219 509.902 256.754 509.902 256.754L483.03 310.274L462.161 300.633L483.03 256.376L460.947 223.602L453.93 179.596Z" fill="#E4E4E4"/>
<path d="M434.762 161.593C446.162 155.149 450.352 140.369 444.12 128.582C437.888 116.794 423.595 112.462 412.194 118.906C400.794 125.349 396.604 140.129 402.836 151.916C409.068 163.704 423.362 168.036 434.762 161.593Z" fill="#9E616A"/>
<path d="M443.316 118.498C442.203 113.668 438.308 109.855 433.828 108.067C429.348 106.28 424.359 106.297 419.625 107.129C411.767 108.509 404.429 112.013 397.198 115.482L402.771 118.239L395.081 118.695L401.023 121.873C399.436 123.122 398.229 124.815 397.545 126.752C396.861 128.689 396.728 130.788 397.163 132.8C397.469 134.117 398.286 135.568 399.595 135.614C401.178 135.669 402.004 133.762 403.112 132.592C404.586 131.036 406.913 130.691 409 130.984C411.088 131.277 413.068 132.107 415.127 132.567C417.731 133.128 420.421 133.097 423.012 132.476C425.603 131.855 428.033 130.659 430.132 128.972L437.543 147.422C437.473 146.727 437.56 146.023 437.796 145.368C438.033 144.712 438.412 144.122 438.906 143.644C439.399 143.165 439.993 142.811 440.64 142.608C441.288 142.406 441.972 142.361 442.639 142.478C443.307 142.594 443.939 142.868 444.486 143.279C445.034 143.69 445.483 144.226 445.797 144.845C446.111 145.465 446.283 146.151 446.298 146.85C446.314 147.55 446.172 148.243 445.886 148.877C449.094 143.874 451.674 138.19 451.763 132.188C451.851 126.185 448.972 119.862 443.703 117.344" fill="#2F2E41"/>
<path d="M170.683 491.215L160.662 507.505L166.499 486.299C154.175 473.003 137.114 463.276 137.114 463.276C137.114 463.276 116.106 498.976 121.761 520.936C127.415 542.896 142.015 547.088 157.59 542.8C173.164 538.513 183.816 527.37 178.162 505.41C176.903 500.522 174.17 495.724 170.683 491.215Z" fill="#F2F2F2"/>
<path d="M157.424 509.129L157.703 510.211C160.88 522.811 161.356 533.193 159.109 541.214C159.078 541.331 159.04 541.445 159.01 541.562L158.486 541.402L157.984 541.242C160.529 532.548 159.393 521.562 156.624 510.571C156.539 510.216 156.451 509.856 156.354 509.498C155.142 504.857 153.657 500.233 152.041 495.788C151.919 495.443 151.79 495.094 151.662 494.745C149.499 488.89 147.136 483.378 144.947 478.626C144.794 478.29 144.636 477.955 144.479 477.625C140.741 469.598 137.573 463.911 136.862 462.656C136.777 462.501 136.728 462.417 136.717 462.397L137.172 462.117L137.176 462.11L137.636 461.828C137.647 461.848 137.814 462.129 138.105 462.657C139.206 464.627 142.13 469.991 145.501 477.2C145.652 477.526 145.81 477.861 145.964 478.197C147.744 482.051 149.632 486.386 151.427 490.988C151.88 492.143 152.313 493.286 152.726 494.418C152.86 494.765 152.989 495.114 153.111 495.459C154.858 500.264 156.296 504.82 157.424 509.129Z" fill="white"/>
<path d="M145.502 477.2C145.167 477.344 144.827 477.489 144.479 477.625C143.534 477.996 142.572 478.316 141.596 478.585C137.437 479.736 133.081 479.907 128.85 479.087C128.705 479.431 128.56 479.775 128.412 480.125C132.875 481.031 137.478 480.871 141.872 479.657C142.914 479.369 143.941 479.026 144.948 478.626C145.29 478.492 145.63 478.347 145.964 478.197C148.721 476.983 151.283 475.343 153.564 473.334C153.265 473.1 152.973 472.871 152.687 472.645C150.522 474.521 148.101 476.056 145.502 477.2Z" fill="white"/>
<path d="M152.726 494.418C152.374 494.538 152.019 494.647 151.662 494.745C151.554 494.78 151.44 494.812 151.331 494.842C146.823 496.083 142.092 496.178 137.54 495.12C132.989 494.062 128.752 491.881 125.192 488.764C125.066 489.137 124.94 489.511 124.821 489.888C128.502 493.02 132.852 495.201 137.51 496.248C142.168 497.296 147.001 497.181 151.607 495.914C151.753 495.874 151.898 495.834 152.041 495.788C152.403 495.683 152.758 495.574 153.111 495.459C158.569 493.643 163.406 490.24 167.042 485.657C166.795 485.386 166.548 485.116 166.295 484.846C162.769 489.334 158.054 492.66 152.726 494.418Z" fill="white"/>
<path d="M157.424 509.129C157.07 509.261 156.712 509.382 156.354 509.498C155.969 509.621 155.583 509.739 155.195 509.846C149.135 511.506 142.718 511.092 136.905 508.666C131.092 506.24 126.195 501.933 122.948 496.389C122.827 496.887 122.704 497.38 122.593 497.875C126.052 503.346 131.09 507.551 136.992 509.892C142.894 512.234 149.36 512.593 155.471 510.918C155.859 510.811 156.247 510.698 156.625 510.571C156.99 510.459 157.347 510.338 157.703 510.211C164.878 507.602 170.826 502.27 174.342 495.296C174.131 494.93 173.906 494.573 173.679 494.21C170.343 501.18 164.512 506.531 157.424 509.129Z" fill="white"/>
<path d="M561.559 492.914L551.684 508.967L557.436 488.069C545.291 474.966 528.478 465.381 528.478 465.381C528.478 465.381 507.776 500.562 513.348 522.203C518.92 543.844 533.308 547.975 548.656 543.75C564.005 539.525 574.502 528.543 568.93 506.902C567.689 502.086 564.995 497.357 561.559 492.914Z" fill="#F2F2F2"/>
<path d="M548.493 510.567L548.768 511.634C551.899 524.05 552.367 534.281 550.153 542.186C550.123 542.302 550.086 542.414 550.055 542.529L549.539 542.372L549.044 542.214C551.553 533.646 550.433 522.819 547.705 511.989C547.62 511.639 547.534 511.284 547.438 510.931C546.244 506.357 544.781 501.8 543.188 497.421C543.068 497.08 542.941 496.736 542.814 496.393C540.683 490.623 538.355 485.19 536.197 480.508C536.046 480.176 535.89 479.846 535.736 479.521C532.053 471.611 528.931 466.007 528.229 464.769C528.146 464.617 528.097 464.534 528.087 464.514L528.535 464.238L528.539 464.231L528.993 463.954C529.003 463.974 529.168 464.251 529.455 464.771C530.54 466.712 533.421 471.998 536.743 479.102C536.892 479.423 537.048 479.754 537.199 480.085C538.953 483.883 540.814 488.155 542.583 492.69C543.029 493.828 543.456 494.955 543.863 496.07C543.995 496.412 544.122 496.756 544.242 497.096C545.965 501.831 547.381 506.321 548.493 510.567Z" fill="white"/>
<path d="M536.744 479.102C536.414 479.244 536.079 479.387 535.736 479.521C534.805 479.886 533.857 480.202 532.895 480.467C528.796 481.601 524.504 481.77 520.333 480.962C520.191 481.301 520.049 481.639 519.902 481.985C524.3 482.878 528.837 482.72 533.167 481.523C534.194 481.24 535.205 480.901 536.198 480.508C536.535 480.375 536.87 480.232 537.199 480.085C539.916 478.889 542.441 477.273 544.688 475.292C544.394 475.062 544.106 474.836 543.825 474.614C541.691 476.462 539.305 477.975 536.744 479.102Z" fill="white"/>
<path d="M543.863 496.07C543.516 496.188 543.167 496.295 542.814 496.392C542.708 496.427 542.596 496.458 542.489 496.488C538.046 497.711 533.383 497.805 528.898 496.762C524.413 495.719 520.238 493.57 516.729 490.499C516.605 490.866 516.481 491.234 516.363 491.606C519.991 494.693 524.277 496.841 528.868 497.874C533.458 498.907 538.221 498.793 542.761 497.544C542.904 497.505 543.047 497.465 543.188 497.421C543.545 497.317 543.894 497.209 544.243 497.096C549.621 495.307 554.387 491.953 557.971 487.436C557.728 487.169 557.484 486.903 557.235 486.638C553.761 491.06 549.113 494.338 543.863 496.07Z" fill="white"/>
<path d="M548.493 510.567C548.144 510.697 547.791 510.817 547.438 510.931C547.059 511.053 546.679 511.169 546.296 511.274C540.324 512.91 534.001 512.502 528.272 510.112C522.543 507.721 517.718 503.476 514.518 498.012C514.398 498.503 514.277 498.989 514.167 499.477C517.576 504.869 522.541 509.012 528.358 511.32C534.174 513.627 540.546 513.981 546.568 512.33C546.951 512.225 547.332 512.114 547.705 511.989C548.065 511.878 548.417 511.759 548.767 511.634C555.838 509.062 561.699 503.808 565.164 496.936C564.957 496.574 564.735 496.223 564.512 495.866C561.224 502.734 555.478 508.007 548.493 510.567Z" fill="white"/>
<path d="M357.178 94.0906C357.178 55.6917 331.287 24.5631 299.35 24.5631C267.412 24.5631 241.521 55.6917 241.521 94.0906C241.521 128.917 262.818 157.762 290.608 162.828V169.38C290.608 170.618 291.084 171.805 291.93 172.68C292.776 173.556 293.925 174.047 295.122 174.047H303.578C304.775 174.047 305.923 173.556 306.769 172.68C307.616 171.805 308.091 170.618 308.091 169.38V162.828C335.881 157.762 357.178 128.917 357.178 94.0906Z" fill="#A852C7"/>
<path d="M289.217 168.433C291.027 166.676 293.183 165.345 295.537 164.531C297.891 163.716 300.387 163.439 302.855 163.716C305.342 164.014 307.728 164.906 309.825 166.32C311.922 167.734 313.672 169.632 314.939 171.865C316.206 174.031 317.002 176.457 317.271 178.973C317.541 181.49 317.278 184.037 316.5 186.437C314.98 191.225 311.749 195.21 308.437 198.801C304.962 202.569 301.182 206.043 297.915 210.014C292.528 216.6 288.766 224.439 286.952 232.859C285.139 241.279 285.327 250.028 287.502 258.356C290.368 268.911 296.287 278.308 304.464 285.287C305.503 286.165 306.572 287 307.672 287.794C308.945 288.716 310.151 286.557 308.888 285.643C300.01 279.149 293.449 269.811 290.219 259.074C287.771 250.706 287.457 241.826 289.31 233.297C291.163 224.767 295.118 216.878 300.792 210.397C304.238 206.463 308.097 202.941 311.542 199.006C314.842 195.236 317.851 190.982 319.14 186.001C319.793 183.469 319.954 180.828 319.616 178.231C319.278 175.634 318.446 173.131 317.168 170.868C315.897 168.554 314.177 166.536 312.116 164.942C310.055 163.348 307.698 162.21 305.192 161.602C300.151 160.469 294.882 161.412 290.502 164.231C289.43 164.939 288.428 165.757 287.514 166.671C286.395 167.786 288.1 169.546 289.217 168.433V168.433Z" fill="#3F3D56"/>
<path d="M134.336 64.9756C116.642 22.9172 73.9402 1.57697 38.9586 17.3111C3.97695 33.0452 -10.0372 79.8953 7.657 121.954C23.7048 160.099 60.3234 181.201 93.0961 173.059L96.1154 180.236C96.6858 181.592 97.7536 182.658 99.084 183.199C100.414 183.741 101.899 183.714 103.21 183.124L112.471 178.959C113.783 178.369 114.813 177.265 115.337 175.889C115.861 174.513 115.835 172.979 115.265 171.623L112.245 164.446C140.349 145.207 150.384 103.121 134.336 64.9756Z" fill="#A852C7"/>
<path d="M93.9791 179.67C95.1288 176.931 96.8221 174.473 98.9492 172.454C101.076 170.435 103.59 168.901 106.327 167.951C109.015 167.015 111.868 166.698 114.687 167.022C117.505 167.346 120.222 168.303 122.645 169.826C125.142 171.355 127.295 173.417 128.96 175.875C130.625 178.332 131.764 181.128 132.302 184.077C133.537 190.911 131.533 197.871 129.256 204.233C126.869 210.903 123.895 217.38 122.235 224.306C119.925 234.04 119.879 244.201 122.099 253.958C124.319 263.714 128.743 272.788 135.008 280.436C142.899 289.891 153.292 296.753 164.906 300.178C166.331 300.594 167.771 300.948 169.221 301.252C170.735 301.569 171.383 299.168 169.862 298.85C157.777 296.277 146.764 289.886 138.346 280.559C129.422 270.583 124.031 257.775 123.053 244.223C122.529 237.358 123.137 230.45 124.852 223.795C126.683 216.773 129.782 210.198 132.119 203.356C134.348 196.826 135.928 189.815 134.527 182.906C133.24 176.822 129.669 171.516 124.601 168.152C122.172 166.496 119.448 165.356 116.589 164.797C113.73 164.239 110.792 164.273 107.946 164.899C102.134 166.26 97.0412 169.86 93.7049 174.966C92.8934 176.239 92.2069 177.593 91.6557 179.007C91.0633 180.487 93.3936 181.133 93.9791 179.67L93.9791 179.67Z" fill="#3F3D56"/>
<path d="M628.606 572.983L641.594 572.982L647.772 521.183L628.604 521.184L628.606 572.983Z" fill="#FFB6B6"/>
<path d="M625.293 568.598L650.871 568.597H650.872C655.195 568.597 659.341 570.373 662.397 573.533C665.454 576.694 667.172 580.981 667.172 585.451V585.998L625.294 586L625.293 568.598Z" fill="#2F2E41"/>
<path d="M551.732 561.563L564.116 565.612L585.116 518.154L566.84 512.176L551.732 561.563Z" fill="#FFB6B6"/>
<path d="M549.853 556.349L574.24 564.325L574.241 564.325C578.362 565.674 581.797 568.66 583.79 572.627C585.782 576.593 586.169 581.216 584.865 585.478L584.706 586L544.777 572.941L549.853 556.349Z" fill="#2F2E41"/>
<path d="M580.976 336.413L573.769 357.431L573.565 470.899L553.125 548.586L578.215 555.826L605.93 482.574L614.819 418.233L626.534 482.948L624.921 559.867H651.246L653.233 441.335C653.791 408.046 648.157 374.956 636.639 343.865V343.865L580.976 336.413Z" fill="#2F2E41"/>
<path d="M572.393 251.275H614.943L632.722 269.658L638.033 345.646L573.769 356.339L553.125 283.836L564.368 253.022L572.393 251.275Z" fill="#E4E4E4"/>
<path d="M557.09 284.561L491.579 259.074L489.874 248.539L531.189 212.391L544.94 223.056L520.016 251.275L564.367 253.022L557.09 284.561Z" fill="#E4E4E4"/>
<path d="M539.135 227.176C544.986 227.176 549.729 222.272 549.729 216.222C549.729 210.173 544.986 205.269 539.135 205.269C533.284 205.269 528.541 210.173 528.541 216.222C528.541 222.272 533.284 227.176 539.135 227.176Z" fill="#FFB6B6"/>
<path d="M563.704 230.022L568.491 207.702C569.33 203.772 570.91 200.05 573.141 196.751C575.372 193.452 578.21 190.64 581.493 188.476C584.776 186.311 588.439 184.837 592.273 184.138C596.106 183.438 600.036 183.526 603.837 184.398C607.638 185.269 611.235 186.907 614.424 189.217C617.612 191.527 620.329 194.464 622.419 197.86C624.509 201.257 625.932 205.045 626.605 209.01C627.278 212.975 627.188 217.039 626.342 220.968L621.555 243.287C621.325 244.352 620.696 245.279 619.806 245.866C618.916 246.452 617.838 246.649 616.807 246.414L566.728 234.931C565.698 234.693 564.801 234.043 564.234 233.123C563.667 232.203 563.477 231.087 563.704 230.022Z" fill="#2F2E41"/>
<path d="M596.684 238.435C608.207 234.983 614.841 222.526 611.502 210.611C608.163 198.697 596.115 191.837 584.593 195.289C573.07 198.741 566.435 211.199 569.774 223.113C573.113 235.027 585.161 241.887 596.684 238.435Z" fill="#FFB6B6"/>
<path d="M561.265 207.919C562.617 201.648 566.319 196.188 571.56 192.736C576.801 189.284 583.152 188.123 589.22 189.507L593.538 190.497C599.602 191.895 604.883 195.723 608.222 201.142C611.56 206.561 612.683 213.128 611.344 219.402L611.249 219.849L602.125 217.757L600.945 208.033L598.391 216.9L593.676 215.819L593.081 210.913L591.791 215.387L561.169 208.365L561.265 207.919Z" fill="#2F2E41"/>
<path d="M583.198 241.341C582.898 240.643 582.796 239.871 582.901 239.116C583.007 238.36 583.317 237.65 583.795 237.068C590.3 229.12 600.271 213.963 593.968 201.761L593.515 200.884L618.199 206.544L609.98 244.862L586.68 243.811C586.444 243.801 586.209 243.769 585.979 243.716C585.366 243.576 584.795 243.287 584.312 242.874C583.829 242.461 583.447 241.936 583.198 241.341Z" fill="#2F2E41"/>
<path d="M613.25 251.735L682.548 261.923L686.423 271.825L653.673 316.377L638.012 309.051L656.424 275.915L612.762 284.155L613.25 251.735Z" fill="#E4E4E4"/>
<path d="M717 107.294C717 61.4283 686.075 24.2469 647.927 24.2469C609.779 24.2469 578.854 61.4283 578.854 107.294C578.854 148.892 604.292 183.345 637.486 189.397V197.223C637.486 198.701 638.054 200.119 639.065 201.165C640.076 202.21 641.447 202.797 642.877 202.797H652.977C654.407 202.797 655.778 202.21 656.789 201.165C657.8 200.119 658.368 198.701 658.368 197.223V189.397C691.562 183.345 717 148.892 717 107.294Z" fill="#A852C7"/>
<path d="M635.659 195.92C637.852 193.789 640.467 192.176 643.322 191.192C646.178 190.209 649.206 189.879 652.197 190.225C655.135 190.583 657.956 191.628 660.446 193.28C662.936 194.932 665.03 197.149 666.569 199.761C668.135 202.34 669.143 205.239 669.522 208.258C669.901 211.278 669.643 214.347 668.765 217.253C667.061 222.959 663.321 227.736 659.422 232.018C655.262 236.586 650.706 240.763 646.728 245.51C640.246 253.3 635.69 262.601 633.453 272.614C631.215 282.627 631.363 293.052 633.884 302.993C637.256 315.77 644.382 327.149 654.277 335.559C655.479 336.571 656.715 337.535 657.987 338.453C659.26 339.374 660.466 337.215 659.203 336.302C648.606 328.557 640.758 317.434 636.861 304.636C633.901 294.647 633.482 284.037 635.643 273.832C637.804 263.626 642.473 254.168 649.199 246.372C653.287 241.654 657.891 237.45 662.026 232.777C665.985 228.303 669.62 223.279 671.246 217.366C672.065 214.379 672.303 211.255 671.946 208.172C671.59 205.09 670.645 202.112 669.168 199.409C667.697 196.646 665.69 194.226 663.272 192.303C660.854 190.379 658.078 188.993 655.118 188.231C649.102 186.801 642.783 187.884 637.535 191.245C636.249 192.087 635.049 193.063 633.956 194.159C632.838 195.275 634.543 197.035 635.659 195.92Z" fill="#3F3D56"/>
<path d="M644.014 329.047C649.865 329.047 654.608 324.143 654.608 318.093C654.608 312.043 649.865 307.139 644.014 307.139C638.163 307.139 633.42 312.043 633.42 318.093C633.42 324.143 638.163 329.047 644.014 329.047Z" fill="#FFB6B6"/>
<path d="M533.619 219.298C533.064 220.206 531.717 220.074 530.961 219.506C529.911 218.718 530.251 217.199 530.974 216.302C533.271 213.45 537.071 216.461 537.584 219.293C537.774 220.674 537.569 222.082 536.992 223.344C536.416 224.605 535.494 225.663 534.341 226.388C531.72 227.994 528.315 227.189 526.061 225.266C521.36 221.256 522.64 213.227 527.862 210.326C531.195 208.474 535.408 209.287 538.691 210.838C542.387 212.584 545.565 215.26 548.983 217.49C556.482 222.344 564.964 225.339 573.768 226.241C575.309 226.404 575.298 223.911 573.768 223.75C568.889 223.229 564.1 222.036 559.526 220.204C555.001 218.308 550.706 215.87 546.729 212.942C542.705 210.09 538.501 207.319 533.521 206.848C531.511 206.605 529.475 206.917 527.62 207.752C525.765 208.586 524.156 209.914 522.958 211.6C521.893 213.109 521.179 214.852 520.874 216.693C520.569 218.535 520.68 220.424 521.2 222.213C521.825 224.084 522.92 225.751 524.371 227.042C525.822 228.334 527.578 229.205 529.46 229.567C531.273 229.921 533.146 229.682 534.821 228.882C536.495 228.082 537.886 226.762 538.8 225.106C540.633 221.828 540.573 217.425 537.805 214.707C537.011 213.873 536.018 213.272 534.926 212.964C533.834 212.657 532.683 212.656 531.59 212.959C530.583 213.311 529.697 213.958 529.04 214.822C528.384 215.687 527.985 216.73 527.893 217.824C527.625 222.079 533.467 224.207 535.7 220.555C536.531 219.196 534.446 217.944 533.619 219.298Z" fill="#3F3D56"/>
<path d="M51.5604 353.19L48.3782 357.319L37.1226 350.434L40.3047 346.305L51.5604 353.19Z" fill="#E4E4E4"/>
<path d="M63.3053 370.929L66.1164 375.267L54.2921 381.348L51.481 377.011L63.3053 370.929Z" fill="#E4E4E4"/>
<path d="M75.5458 352.073L81.1632 352.278L80.6042 364.431L74.9868 364.226L75.5458 352.073Z" fill="#E4E4E4"/>
<path d="M184.084 24.3252L180.902 28.4535L169.646 21.5689L172.829 17.4398L184.084 24.3252Z" fill="#E4E4E4"/>
<path d="M195.829 42.064L198.64 46.4015L186.816 52.4831L184.005 48.1455L195.829 42.064Z" fill="#E4E4E4"/>
<path d="M208.07 23.2074L213.687 23.4125L213.128 35.5656L207.511 35.3605L208.07 23.2074Z" fill="#E4E4E4"/>
<path d="M496.519 67.5095L493.337 71.6378L482.081 64.7532L485.263 60.6241L496.519 67.5095Z" fill="#E4E4E4"/>
<path d="M508.264 85.2483L511.075 89.5859L499.251 95.6674L496.439 91.3298L508.264 85.2483Z" fill="#E4E4E4"/>
<path d="M520.504 66.3917L526.122 66.5969L525.563 78.7499L519.945 78.5448L520.504 66.3917Z" fill="#E4E4E4"/>
<path d="M400.941 6.88541L397.759 11.0137L386.503 4.12908L389.686 0L400.941 6.88541Z" fill="#E4E4E4"/>
<path d="M412.686 24.6242L415.497 28.9617L403.673 35.0432L400.862 30.7057L412.686 24.6242Z" fill="#E4E4E4"/>
<path d="M424.927 5.7676L430.544 5.97272L429.985 18.1258L424.368 17.9207L424.927 5.7676Z" fill="#E4E4E4"/>
<path d="M498.114 317.239L494.932 322.031L506.188 330.022L509.37 325.23L498.114 317.239Z" fill="#E4E4E4"/>
<path d="M509.29 352.879L512.101 357.913L523.926 350.854L521.115 345.82L509.29 352.879Z" fill="#E4E4E4"/>
<path d="M532.796 338.039L538.413 338.277L538.972 324.171L533.355 323.933L532.796 338.039Z" fill="#E4E4E4"/>
<path d="M259.344 534.714L269.075 533.158L262.403 452.768L240.718 456.921L259.344 534.714Z" fill="#FFB6B6"/>
<path d="M256.37 531.826L275.534 528.761L275.535 528.761C278.774 528.244 282.079 529.078 284.724 531.08C287.368 533.082 289.135 536.088 289.636 539.437L289.697 539.847L258.32 544.864L256.37 531.826Z" fill="#2F2E41"/>
<path d="M157.07 533.717L166.908 534.15L178.873 462.733L157.188 462.734L157.07 533.717Z" fill="#FFB6B6"/>
<path d="M154.697 530.285L174.072 531.139H174.072C177.347 531.283 180.432 532.767 182.648 535.263C184.865 537.759 186.032 541.063 185.893 544.449L185.876 544.864L154.154 543.467L154.697 530.285Z" fill="#2F2E41"/>
<path d="M176.439 301.037C175.975 300.902 175.5 300.81 175.019 300.763L181.152 248.859L201.962 203.292C203.271 200.426 203.48 197.153 202.547 194.133C201.614 191.114 199.608 188.572 196.935 187.022C194.261 185.471 191.118 185.027 188.139 185.778C185.161 186.529 182.569 188.42 180.886 191.07V191.07C175.432 199.656 171.306 209.069 168.658 218.97L159.915 251.655L166.308 307.705C166.063 309.285 166.264 310.904 166.888 312.369C167.512 313.833 168.532 315.079 169.825 315.958C171.119 316.837 172.63 317.311 174.177 317.323C175.725 317.334 177.242 316.883 178.548 316.024C179.853 315.165 180.891 313.934 181.535 312.479C182.18 311.025 182.404 309.409 182.182 307.825C181.959 306.242 181.298 304.759 180.28 303.555C179.261 302.35 177.927 301.476 176.439 301.037H176.439Z" fill="#FFB6B6"/>
<path d="M189.074 253.252L162.783 222.154L175.808 190.478C177.513 186.33 180.719 183.036 184.741 181.298C188.763 179.56 193.282 179.516 197.335 181.176C201.388 182.835 204.653 186.067 206.433 190.181C208.214 194.295 208.369 198.966 206.865 203.196L189.074 253.252Z" fill="#2F2E41"/>
<path d="M232.778 154.113C239.103 142.149 234.851 127.148 223.28 120.608C211.709 114.068 197.201 118.465 190.875 130.429C184.55 142.393 188.803 157.394 200.374 163.934C211.945 170.474 226.453 166.077 232.778 154.113Z" fill="#FFB6B6"/>
<path d="M215.819 112.277H200.395C190.283 112.277 182.086 121.812 182.086 133.574L182.8 162.105C193.726 163.51 204.412 166.465 214.558 170.887L215.998 164.531L218.837 172.902C221.363 174.168 223.867 175.551 226.35 177.053C223.452 162.976 222.26 148.931 224.249 138.021H229.473V132.11L231.247 138.021H240.718V138.021C240.718 134.64 240.074 131.292 238.822 128.169C237.571 125.045 235.737 122.207 233.425 119.817C231.113 117.426 228.368 115.53 225.347 114.236C222.327 112.942 219.089 112.276 215.819 112.277Z" fill="#2F2E41"/>
<path d="M266.112 457.136L263.877 457.692L262.002 421.626L248.348 313.665L232.686 272.557L240.316 243.906C240.316 243.906 249.151 223.974 227.064 208.611L209.394 177.883C197.188 169.632 187.146 175.027 181.793 189.053C177.128 201.274 173.507 216.736 175.661 232.694C180.485 268.442 184.496 272.557 184.496 272.557C184.496 272.557 154.377 307.021 160.802 351.036L157.221 464.996L153.945 464.857L153.586 473.909L182.208 475.122L182.567 466.071L180.193 465.97L190.519 420.795L205.78 361.002L232.285 434.083L241.199 463.339L238.262 464.071L240.314 472.878L268.163 465.943L266.112 457.136Z" fill="#2F2E41"/>
<path d="M285.781 252.496C285.457 252.865 285.165 253.264 284.91 253.687L242.741 224.822L212.613 185.214C210.718 182.722 207.98 181.066 204.95 180.58C201.921 180.094 198.826 180.813 196.289 182.594C193.753 184.375 191.964 187.084 191.283 190.174C190.603 193.265 191.081 196.508 192.621 199.248C197.614 208.13 203.915 216.152 211.298 223.026L235.671 245.717L287.024 264.847C288.281 265.78 289.773 266.317 291.318 266.394C292.864 266.471 294.398 266.084 295.736 265.281C297.075 264.477 298.16 263.291 298.861 261.865C299.563 260.439 299.851 258.833 299.691 257.242C299.53 255.65 298.929 254.141 297.958 252.894C296.988 251.648 295.69 250.718 294.22 250.217C292.751 249.715 291.173 249.664 289.675 250.068C288.178 250.472 286.826 251.315 285.781 252.496H285.781Z" fill="#FFB6B6"/>
<path d="M250.081 219.458L211.427 229.883L189.84 203.682C187.013 200.251 185.595 195.814 185.888 191.317C186.182 186.82 188.163 182.619 191.41 179.612C194.657 176.605 198.912 175.028 203.267 175.219C207.622 175.411 211.732 177.354 214.721 180.635L250.081 219.458Z" fill="#2F2E41"/>
<path d="M549.688 545.71H29.7981C29.5445 545.71 29.3012 545.606 29.1219 545.42C28.9426 545.235 28.8418 544.983 28.8418 544.721C28.8418 544.459 28.9426 544.207 29.1219 544.022C29.3012 543.837 29.5445 543.732 29.7981 543.732H549.688C549.942 543.732 550.185 543.837 550.364 544.022C550.544 544.207 550.644 544.459 550.644 544.721C550.644 544.983 550.544 545.235 550.364 545.42C550.185 545.606 549.942 545.71 549.688 545.71Z" fill="#CACACA"/>
</g>
<defs>
<clipPath id="clip0_44_169">
<rect width="717" height="586" fill="white"/>
</clipPath>
</defs>
</svg>
